<svg width="85" height="116" viewBox="0 0 85 116" fill="none" xmlns="http://www.w3.org/2000/svg">
<g clip-path="url(#clip0_1_6)" filter="url(#filter0_d_1_6)">
<path d="M33.612 103.81C30.8414 105.052 28.1888 106.759 26.2432 109.195C25.0264 110.706 24.0815 112.452 23.3388 114.262C22.4884 116.379 21.8898 118.653 21.8624 120.959C21.8395 122.5 22.1809 124.039 22.8393 125.418C23.2389 126.272 23.7478 127.086 24.2833 127.853M58.5094 118.725C56.3558 116.564 53.3195 113.727 51.5095 111.293C50.7291 110.295 49.9729 108.984 49.2261 107.957C48.811 107.391 48.3418 106.853 47.8337 106.376C46.0965 104.725 43.8451 103.724 41.5237 103.402" stroke="black" stroke-width="2.75" stroke-miterlimit="10" stroke-linecap="round" stroke-linejoin="round"/>
<path d="M47.5741 102.814C43.1659 103.017 38.0694 104.114 33.6554 103.812C30.5168 103.64 27.3953 102.947 24.3857 102.024C21.9697 101.268 19.5205 100.426 17.2924 99.1782C16.5035 98.7253 15.7342 98.1952 15.1348 97.4868C14.7507 97.0386 14.4404 96.5204 14.1706 95.9911C13.8164 95.3006 13.4811 94.5206 13.1777 93.8033C12.2704 91.5625 10.9337 88.3034 9.90972 86.1449C9.23253 84.7508 8.06855 82.4614 7.52402 81.0562C7.12237 80.0386 6.78992 78.9677 6.56433 77.8921C6.14508 75.8616 6.04314 73.754 6.08285 71.6817C6.13608 69.6269 6.32195 67.5482 6.77232 65.5438C7.0323 64.3202 7.53139 62.9699 7.39423 61.7076C7.34633 61.2708 7.23374 60.8375 7.10927 60.4187C6.87713 59.6447 6.52871 58.6667 6.35757 57.8829C6.13075 56.9049 6.03822 55.8895 6.0632 54.8847C6.08777 53.9605 6.21141 53.0304 6.47221 52.1454C6.7195 51.3133 7.09576 50.5069 7.65831 49.8556C8.09721 49.3473 8.64665 48.9523 9.21943 48.6248C10.1738 48.0644 11.3542 47.6806 12.2921 47.0895C12.521 46.9398 12.7376 46.7632 12.91 46.5449C13.1241 46.2779 13.269 45.9572 13.3738 45.6288C13.5122 45.1963 13.6158 44.6658 13.7481 44.2312C13.8602 43.8584 14.0035 43.4917 14.1698 43.1411C15.2289 40.8982 17.188 39.3207 19.1221 37.9321C19.8501 37.4118 22.3918 35.693 23.0358 35.1531C23.2593 34.9697 23.4788 34.7714 23.6741 34.5556C23.9459 34.2601 24.1707 33.9048 24.3836 33.5623C24.6719 33.0949 24.9523 32.6032 25.1615 32.0914" stroke="black" stroke-width="2.75" stroke-miterlimit="10" stroke-linecap="round" stroke-linejoin="round"/>
<path d="M60.1299 96.3916C62.5004 96.9972 64.9631 97.8975 67.2247 98.8532C67.8524 99.1334 68.4853 99.4409 69.0499 99.8435C69.3648 100.072 69.669 100.335 69.8811 100.672C69.9797 100.83 70.053 101.007 70.0866 101.193C70.1279 101.416 70.1144 101.648 70.0673 101.87C69.9867 102.242 69.8201 102.59 69.6325 102.917C69.2518 103.569 68.7609 104.173 68.2876 104.754C67.5916 105.597 66.8366 106.441 66.048 107.19C65.5539 107.654 65.031 108.108 64.4591 108.466C64.0243 108.738 63.5309 108.951 63.0155 108.928C62.6191 108.914 62.2371 108.771 61.885 108.589C61.3667 108.319 60.8721 107.955 60.4017 107.604C59.3491 106.796 57.9427 105.649 56.8311 104.964C56.1343 104.529 55.3945 104.151 54.6358 103.847" stroke="black" stroke-width="2.75" stroke-miterlimit="10" stroke-linecap="round" stroke-linejoin="round"/>
<path d="M50.3975 90.1266C51.7674 87.7481 53.0407 85.2399 53.7805 82.5646C54.1007 81.4293 54.1707 80.1703 54.3685 79.012C54.4782 78.3744 54.6981 77.7803 54.9982 77.2144C55.3376 76.5662 55.8313 75.7345 56.1302 75.0692C56.4107 74.4619 56.6363 73.8175 56.7996 73.1654C57.1652 71.7077 57.313 70.1822 57.3372 68.6775C57.3552 66.9763 57.2103 65.249 56.8254 63.5934" stroke="black" stroke-width="2.75" stroke-miterlimit="10" stroke-linecap="round" stroke-linejoin="round"/>
<path d="M28.477 59.1478C28.468 59.5871 28.4791 60.1082 28.3915 60.5356C28.337 60.8256 28.2355 61.1054 28.1147 61.3719C27.8273 62.0125 27.4371 62.6637 27.3208 63.3691C27.1591 64.3355 27.6983 65.2299 28.1659 66.0184C28.8156 67.0603 29.5378 68.179 30.0046 69.319C30.4688 70.4137 30.7862 71.5857 30.8799 72.7807C30.9995 74.1638 30.7755 75.5563 30.3935 76.8792C29.84 78.8427 28.947 80.7197 28.0741 82.5467C27.9939 82.7365 27.9399 82.9335 28.0095 83.1374C28.118 83.4479 28.3587 83.7089 28.5802 83.9375C29.4048 84.7499 30.4132 85.3436 31.4199 85.8754C32.7174 86.5441 34.801 87.5323 36.0096 88.3051C36.7711 88.7768 37.5048 89.332 38.1795 89.93C39.0196 90.6635 40.1214 91.7839 40.9718 92.5029C41.3881 92.8522 41.8303 93.1879 42.3089 93.4382C42.5845 93.5836 42.8793 93.692 43.1798 93.767C44.2443 94.0276 45.823 94.124 46.9198 94.2489" stroke="black" stroke-width="2.75" stroke-miterlimit="10" stroke-linecap="round" stroke-linejoin="round"/>
<path d="M45.3215 29.8664C45.9729 29.8084 46.702 29.7325 47.3526 29.7607C47.8402 29.7765 48.336 29.8541 48.8138 29.956L50.3987 30.3125C50.9633 30.432 51.5426 30.5313 52.1179 30.5556C52.5314 30.5736 52.9576 30.5433 53.3691 30.4951C54.0516 30.4217 54.8708 30.2716 55.5513 30.2571C56.0184 30.24 56.4921 30.2644 56.9544 30.3386C58.1429 30.5322 59.2672 31.0418 60.3194 31.6338C61.8838 32.5311 63.3324 33.6672 64.5815 34.9979C65.3078 35.7813 65.978 36.6449 66.4669 37.6113C66.8325 38.3355 67.0757 39.1254 67.2403 39.9233C67.4634 40.9554 67.5506 42.1794 67.9138 43.1722C68.1226 43.7552 68.4907 44.261 68.9165 44.6918C69.4561 45.2458 70.2405 45.8484 70.8186 46.361C71.3218 46.8037 71.8107 47.2852 72.2254 47.8192C72.9427 48.7442 73.475 49.8185 73.9307 50.9039C74.856 53.1199 75.6142 55.9483 76.3675 58.2373C77.4677 61.5826 78.9543 65.0644 79.1361 68.6349C79.2736 71.2121 78.9252 73.8128 78.3307 76.3116C78.058 77.4136 77.7326 78.528 77.2797 79.5652C76.9649 80.3094 76.4592 81.0873 76.0768 81.7965C75.6961 82.519 75.4136 83.3894 75.0578 84.1247C74.7237 84.8335 74.311 85.5099 73.8181 86.1104C73.3026 86.7416 72.6954 87.2986 72.0739 87.8133C70.0375 89.5052 66.4816 91.6274 64.2511 93.0863C62.6429 94.1453 61.0429 95.3036 59.7712 96.7916C58.7497 97.9384 57.6328 99.8265 56.7836 101.132C56.2281 101.972 55.6352 102.822 54.9425 103.544C54.3509 104.166 53.6528 104.696 52.8557 104.989C51.1013 105.656 49.0591 105.161 47.9647 103.53C47.6548 103.073 47.4443 102.548 47.2945 102.013C47.0726 101.215 46.9714 100.377 46.9125 99.5505C46.8302 98.1521 46.8109 96.6824 46.8486 95.2819C46.9129 93.5444 47.2224 91.4184 48.8601 90.5411C49.2179 90.3488 49.613 90.24 50.0094 90.176C50.6755 90.0698 51.3633 90.0741 52.0356 90.101L54.1613 90.2362C54.4241 90.2473 54.7017 90.2562 54.9638 90.2349C55.1112 90.2221 55.2602 90.1995 55.399 90.1453C55.4788 90.1142 55.555 90.072 55.6246 90.0204C55.7032 89.9624 55.7748 89.8924 55.842 89.8208C56.0872 89.5367 57.6389 87.7323 57.9177 87.4129C59.1861 85.8933 60.4234 84.2885 61.3147 82.4934C61.8531 81.4003 62.2318 80.2173 62.5299 79.0308C62.7674 78.0674 63.153 76.2297 63.4712 75.3162C63.6812 74.6734 64.0939 73.8414 64.3797 73.2243C64.5365 72.8592 64.7264 72.4442 64.6949 72.0357C64.6802 71.8706 64.6216 71.7124 64.541 71.5708C64.333 71.2091 63.8531 70.7298 63.5854 70.4091C61.49 67.9785 59.702 65.2738 58.3603 62.3174" stroke="black" stroke-width="2.75" stroke-miterlimit="10" stroke-linecap="round" stroke-linejoin="round"/>
<path d="M52.4745 63.3414C53.3289 63.8425 54.3148 64.1692 55.3032 64.0779C56.3636 63.9811 57.3306 63.3934 58.0778 62.6249C58.6539 62.0347 59.1202 61.3318 59.5178 60.6021C60.0889 59.5436 60.5295 58.3993 60.859 57.2355C61.4294 55.2481 61.6075 53.1447 61.415 51.0813" stroke="black" stroke-width="2.75" stroke-miterlimit="10" stroke-linecap="round" stroke-linejoin="round"/>
<path d="M28.3464 66.3106C29.912 67.3516 31.5968 68.2314 33.3606 68.8443C35.1821 69.4815 37.1031 69.8414 39.0196 69.9638C41.0565 70.0836 43.1429 69.9868 45.1151 69.4094C46.155 69.1036 47.1557 68.6114 47.9884 67.8877C48.9964 67.0283 49.7547 65.8943 50.454 64.762" stroke="black" stroke-width="2.75" stroke-miterlimit="10" stroke-linecap="round" stroke-linejoin="round"/>
<path d="M23.6802 18.7003C23.1152 16.0331 23.2692 13.1961 24.1146 10.6112C24.6317 9.04434 25.4354 7.54738 26.6076 6.41124C28.5749 4.48269 31.3958 4.0238 33.9923 3.84126C35.6087 3.75469 37.2677 3.7146 38.8784 3.90012C39.8282 4.01655 40.7801 4.23277 41.6579 4.63622C42.3155 4.93604 42.9276 5.34887 43.4684 5.83975C44.9542 7.18871 45.9499 9.07035 46.3921 11.0612C46.6779 12.3159 46.7827 13.6247 46.8298 14.911C46.8736 16.3308 46.9108 17.8431 46.804 19.2594" stroke="black" stroke-width="2.75" stroke-miterlimit="10" stroke-linecap="round" stroke-linejoin="round"/>
<path d="M30.9327 38.9142C29.8572 38.5261 28.8463 37.9291 27.9607 37.1853C27.0858 36.4526 26.339 35.5369 25.8694 34.469C25.3568 33.3205 25.1202 32.0539 24.9634 30.8047C24.8393 29.747 24.7779 28.6565 24.9457 27.6001C24.965 27.4236 24.985 27.2385 24.938 27.0649C24.8147 26.6209 24.3013 26.5036 23.9402 26.3488C23.6626 26.235 23.3887 26.0891 23.1762 25.8673C22.8643 25.5385 22.6923 25.0967 22.5613 24.6629C22.2943 23.7341 22.2006 22.7352 22.1076 21.7735C22.0565 21.1052 22.0057 20.4131 22.1617 19.7563C22.2247 19.5046 22.3295 19.2577 22.5027 19.0671C22.7078 18.8406 22.9957 18.7003 23.2929 18.6722C23.6114 18.6389 23.9386 18.7468 24.1691 18.9805C24.3361 19.1451 24.463 19.3511 24.5683 19.5627C24.7484 19.9281 24.8725 20.3273 24.9818 20.721C25.071 21.0255 25.1902 21.6187 25.3249 21.8861C25.3441 21.919 25.3658 21.9535 25.4002 21.971L25.4014 21.9714L25.4027 21.9718L25.4039 21.9723L25.4051 21.9727L25.4063 21.9731L25.4076 21.9736L25.4088 21.974L25.41 21.9744L25.4113 21.9748L25.4125 21.9753L25.4137 21.9757L25.4149 21.9761L25.4162 21.9765L25.4174 21.977L25.4186 21.9774H25.4199H25.4211H25.4223H25.4235H25.4248H25.426H25.4276H25.4293H25.4313H25.4334L25.4354 21.977L25.4375 21.9765L25.4395 21.9761L25.4416 21.9757L25.4436 21.9753L25.4457 21.9748L25.4477 21.9744L25.4497 21.974L25.4518 21.9736L25.4538 21.9727L25.4559 21.9718L25.4579 21.971L25.46 21.9701L25.462 21.9693L25.4641 21.9684L25.4661 21.9676L25.4682 21.9667L25.4702 21.9654L25.4723 21.9642C25.5067 21.9428 25.532 21.9096 25.555 21.8763C25.65 21.7292 25.7097 21.5573 25.7683 21.3914C26.3271 19.5929 26.5761 17.3663 27.1771 15.5814C27.3757 14.9831 27.6185 14.3877 27.9742 13.8708C28.1822 13.5689 28.4332 13.2942 28.7259 13.0801C29.0023 12.8767 29.3172 12.7283 29.6439 12.6379C30.1769 12.4907 30.7387 12.4754 31.2873 12.4882C31.8891 12.4971 33.4032 12.6473 34.0194 12.6942C36.1193 12.8874 38.4374 12.55 40.5304 12.2997C40.8784 12.266 41.2526 12.2255 41.601 12.2263C41.8377 12.2272 42.0788 12.2464 42.3065 12.3172C42.5648 12.3952 42.7982 12.5492 42.9861 12.7483C43.2907 13.0716 43.5061 13.4755 43.6895 13.8828C44.022 14.6393 44.2455 15.4539 44.4252 16.263C44.84 18.0798 44.9493 20.2015 45.2424 22.0439C45.2818 22.2354 45.3174 22.4542 45.4115 22.6235L45.4148 22.6291L45.4181 22.6342L45.4218 22.6393L45.4255 22.6444L45.4291 22.6491C45.45 22.676 45.4787 22.7028 45.5139 22.702C45.5479 22.7011 45.5745 22.6738 45.5925 22.6461C45.6195 22.6039 45.6359 22.5548 45.6506 22.5067C45.726 22.2461 45.796 21.6669 45.8431 21.3931C45.9577 20.7197 46.1104 20.0053 46.569 19.488C46.7266 19.3089 46.9149 19.1515 47.1332 19.0611C47.2572 19.0108 47.3944 18.9818 47.5266 19.0091C47.6646 19.0364 47.7792 19.1349 47.8595 19.2513C47.9843 19.433 48.0544 19.6497 48.1125 19.8629C48.2308 20.3205 48.2992 20.7986 48.3524 21.269C48.4527 22.2452 48.4789 23.2436 48.3283 24.216C48.2427 24.7529 48.0777 25.2788 47.8795 25.7812C47.7674 26.0567 47.4873 26.745 47.3821 27.0133C47.2232 27.3907 47.0353 27.8138 46.6562 27.995C46.397 28.1187 46.0855 28.1366 45.8144 28.2215C45.685 28.262 45.554 28.3298 45.482 28.4544C45.3694 28.6488 45.3632 28.8872 45.3493 29.1077C45.3321 29.6536 45.3219 30.243 45.2244 30.7795C45.1065 31.4568 44.9026 32.1268 44.675 32.7721C44.1362 34.2545 43.4504 35.7024 42.5816 37.0057C42.2406 37.5039 41.8618 37.9939 41.375 38.3445C40.9771 38.6439 40.451 38.8243 40.0051 39.0298" stroke="black" stroke-width="2.75" stroke-miterlimit="10" stroke-linecap="round" stroke-linejoin="round"/>
<path d="M40.5431 30.5232C40.3838 30.4085 40.2004 30.333 40.0166 30.2724C39.6948 30.1692 39.3558 30.1108 39.0221 30.0665C38.4313 29.9888 37.7783 29.9615 37.1817 29.9415C36.5656 29.9347 33.11 29.8566 32.568 29.8771C32.107 29.8925 31.6361 29.9278 31.1907 30.0596C30.8533 30.1594 30.5258 30.3266 30.2781 30.5902C29.9628 30.9224 29.8048 31.3787 29.7151 31.8283C29.5399 32.7614 29.6037 33.7291 29.72 34.6661C29.8502 35.6316 30.0537 36.5997 30.3432 37.5269C30.6371 38.4464 31.0629 39.3812 31.829 39.9711C32.2183 40.2726 32.6773 40.4649 33.144 40.5929C33.8261 40.7784 34.5442 40.839 35.2472 40.8675C36.1078 40.8901 36.993 40.9187 37.8376 40.7191C38.342 40.5988 38.8321 40.3775 39.228 40.0261C39.7791 39.5361 40.1349 38.8524 40.4072 38.1632C40.7462 37.2851 40.955 36.3477 41.0839 35.412C41.2727 34.0306 41.251 32.6079 40.9767 31.241C40.9398 31.0853 40.8874 30.9305 40.8014 30.7962C40.7335 30.6895 40.6446 30.597 40.5431 30.5232Z" stroke="black" stroke-width="2.75" stroke-miterlimit="10" stroke-linecap="round" stroke-linejoin="round"/>
<path d="M58.3591 62.3183C59.7008 65.2746 61.4887 67.9794 63.5842 70.4099C63.8548 70.734 64.3301 71.2083 64.5397 71.5716C64.6208 71.7132 64.6794 71.8715 64.6937 72.0365C64.7252 72.4446 64.5352 72.8605 64.3784 73.2251C64.0734 73.8827 63.6542 74.7255 63.4376 75.413C63.1469 76.271 62.7502 78.1296 62.5287 79.0317C62.2306 80.2181 61.8523 81.4012 61.3135 82.4943C60.4222 84.2889 59.1849 85.8942 57.9165 87.4137C57.5701 87.8044 56.0889 89.5483 55.7683 89.8963C55.6856 89.9777 55.5939 90.0511 55.4915 90.104C55.3232 90.1918 55.1333 90.2225 54.9474 90.2375C54.6309 90.2618 54.2862 90.2443 53.9689 90.2276C52.8761 90.1598 51.4804 90.0161 50.3971 90.1274C51.767 87.7489 53.0403 85.2408 53.7801 82.5655C54.1003 81.4302 54.1703 80.1712 54.3681 79.0129C54.4778 78.3753 54.6976 77.7812 54.9977 77.2153C55.3372 76.567 55.8309 75.7354 56.1298 75.0701C56.4103 74.4628 56.6358 73.8183 56.7992 73.1662C57.1648 71.7085 57.3126 70.183 57.3368 68.6784C57.3548 66.9771 57.2099 65.2499 56.825 63.5943C57.4072 63.2736 57.9202 62.8262 58.3591 62.3183Z" stroke="black" stroke-width="3.5" stroke-miterlimit="10" stroke-linecap="round" stroke-linejoin="round"/>
<path d="M61.9207 122.639C60.3161 120.507 58.3141 118.494 56.416 116.639C54.9826 112.82 53.2933 108.902 51.4628 105.274C52.6501 105.231 53.7695 104.679 54.6358 103.847C55.3941 104.151 56.1339 104.529 56.8311 104.964C57.9378 105.645 59.3556 106.801 60.4017 107.603C60.8738 107.953 61.3667 108.319 61.885 108.588C62.2367 108.771 62.6191 108.913 63.0155 108.927C63.5309 108.95 64.0243 108.737 64.4591 108.466C65.031 108.108 65.5539 107.654 66.048 107.189C66.8366 106.44 67.5916 105.596 68.2876 104.754C68.7605 104.172 69.2518 103.568 69.6325 102.916C69.8246 102.583 69.9949 102.226 70.0727 101.843C70.1173 101.622 70.1271 101.39 70.0817 101.169C70.0457 100.986 69.9707 100.813 69.872 100.659C69.6444 100.304 69.3169 100.032 68.9803 99.7949C68.3768 99.3787 67.7037 99.0618 67.0368 98.7718C64.812 97.8484 62.4574 96.9848 60.1294 96.3916C61.3315 95.0912 62.7907 94.0502 64.2495 93.0876C66.4341 91.6623 69.9331 89.5598 71.9253 87.9349C72.6004 87.3856 73.2604 86.7923 73.8168 86.1112C74.3425 85.4715 74.7749 84.7465 75.1213 83.9865C75.4574 83.2662 75.737 82.4149 76.1174 81.7181C76.5145 81.0007 77.0152 80.2139 77.3272 79.4534C77.753 78.4495 78.0666 77.3743 78.3291 76.3124C78.924 73.8137 79.272 71.213 79.1344 68.6357C78.9543 65.0674 77.464 61.5792 76.3659 58.2381C75.6101 55.9436 74.8539 53.1212 73.929 50.9043C73.4729 49.8185 72.9411 48.7446 72.2238 47.8196C71.809 47.2856 71.3206 46.8041 70.817 46.3615C70.2368 45.8471 69.454 45.2462 68.9148 44.6922C68.489 44.2615 68.1209 43.7557 67.9121 43.1727C67.5498 42.1811 67.4622 40.9554 67.2386 39.9237C67.0687 39.0985 66.8137 38.2826 66.4276 37.5384C65.9117 36.5443 65.2083 35.6589 64.4472 34.858C63.1841 33.5448 61.7286 32.4215 60.1556 31.5434C59.1235 30.9783 58.0209 30.4955 56.8594 30.3249C56.4 30.2575 55.9296 30.2396 55.4661 30.2609C54.7631 30.2835 53.9177 30.4401 53.2172 30.5117C52.8327 30.5531 52.4331 30.5735 52.0466 30.5522C51.4951 30.5232 50.9367 30.4264 50.3962 30.3121L48.8114 29.9556C48.3332 29.8536 47.8378 29.776 47.3501 29.7602C46.7008 29.7321 45.9687 29.8084 45.319 29.866C45.346 29.4869 45.3149 28.9781 45.4087 28.6168C45.448 28.4761 45.5241 28.3563 45.651 28.2876C45.8799 28.1661 46.169 28.149 46.4142 28.0791C46.5817 28.0347 46.7462 27.9639 46.876 27.8424C47.1151 27.6223 47.2523 27.3105 47.3784 27.0116C47.6769 26.2473 48.0896 25.3645 48.2582 24.561C48.4134 23.8526 48.4429 23.1148 48.4253 22.3906C48.4036 21.6661 48.3311 20.9355 48.1923 20.225C48.126 19.9089 48.0543 19.5823 47.8906 19.3033C47.8152 19.1788 47.7096 19.0649 47.5716 19.0206C47.3026 18.9374 47.0124 19.091 46.8019 19.2581C46.9088 17.8422 46.8728 16.3299 46.8277 14.9097C46.7798 13.623 46.6758 12.3146 46.3901 11.0599C45.9479 9.06907 44.9522 7.18786 43.4664 5.83847C42.9251 5.34802 42.3134 4.93476 41.6559 4.63494C40.7781 4.23192 39.8262 4.01526 38.8763 3.89883C37.2661 3.71331 35.6067 3.75298 33.9903 3.83998C31.3937 4.02251 28.5724 4.48183 26.6055 6.40996C25.4334 7.5461 24.6293 9.04348 24.1126 10.6099C23.2671 13.1953 23.1132 16.0318 23.6782 18.699C23.2614 18.5937 22.7967 18.7404 22.5023 19.0641C22.2874 19.3004 22.1793 19.6189 22.1215 19.9337C22.004 20.6173 22.0671 21.3261 22.1277 22.0132C22.2255 22.9519 22.3222 23.9277 22.6108 24.8267C22.7369 25.2033 22.9015 25.5807 23.1746 25.8669C23.3875 26.0887 23.6614 26.2345 23.9386 26.3484C24.2997 26.5032 24.8127 26.6201 24.9363 27.0645C24.9834 27.238 24.9633 27.4231 24.9441 27.5997C24.8598 28.1652 24.8217 28.7589 24.8462 29.3295C24.8782 30.249 24.99 31.1868 25.159 32.0897C24.9498 32.6015 24.6694 33.0928 24.3812 33.5606C24.1678 33.9035 23.9431 34.2583 23.6716 34.5539C23.4763 34.7697 23.2569 34.968 23.0333 35.1514C22.3995 35.6836 19.8292 37.4228 19.1197 37.9303C17.1671 39.3318 15.1876 40.9289 14.137 43.2046C13.9839 43.5347 13.8512 43.8798 13.7456 44.2295C13.6133 44.6641 13.5098 45.1955 13.3718 45.6271C13.267 45.9554 13.1224 46.2762 12.9079 46.5431C12.7355 46.7615 12.519 46.9381 12.2901 47.0878C11.3521 47.6784 10.1713 48.0635 9.21739 48.6231C8.6446 48.9506 8.09515 49.3456 7.65625 49.8539C7.09411 50.5052 6.71744 51.3116 6.47015 52.1437C6.20935 53.0286 6.08571 53.9588 6.06114 54.883C6.03617 55.8882 6.1287 56.9032 6.35552 57.8811C6.52543 58.6633 6.87466 59.6476 7.10721 60.417C7.23209 60.8358 7.34427 61.2695 7.39218 61.7058C7.52933 62.9682 7.02942 64.3202 6.77026 65.542C6.3199 67.5461 6.13361 69.6252 6.0808 71.68C6.04108 73.7522 6.14303 75.8599 6.56228 77.8904C6.78787 78.9651 7.12032 80.0373 7.52196 81.0545C8.06567 82.4861 9.24849 84.7584 9.90766 86.1432C10.9361 88.2923 12.2573 91.5621 13.1757 93.8016C13.5073 94.5867 13.8688 95.4243 14.2651 96.1745C14.5513 96.717 14.8912 97.2377 15.3075 97.6808C15.9589 98.3811 16.7741 98.8963 17.5974 99.348C19.213 100.218 20.9596 100.884 22.6849 101.475C21.0702 103.739 19.7592 106.288 19.1103 109.039C18.7246 110.645 18.5809 112.317 18.6144 113.971C18.6517 115.688 18.8707 117.424 19.2736 119.09C19.5672 120.292 19.9639 121.486 20.5199 122.585C21.2511 124.054 22.2996 125.331 23.4104 126.502C23.9893 127.496 24.723 128.48 25.4186 129.391" stroke="black" stroke-width="3.5" stroke-miterlimit="10" stroke-linecap="round" stroke-linejoin="round"/>
</g>
<defs>
<filter id="filter0_d_1_6" x="-4" y="0" width="91" height="119" filterUnits="userSpaceOnUse" color-interpolation-filters="sRGB">
<feFlood flood-opacity="0" result="BackgroundImageFix"/>
<feColorMatrix in="SourceAlpha" type="matrix" values="0 0 0 0 0 0 0 0 0 0 0 0 0 0 0 0 0 0 127 0" result="hardAlpha"/>
<feOffset dy="4"/>
<feGaussianBlur stdDeviation="2"/>
<feComposite in2="hardAlpha" operator="out"/>
<feColorMatrix type="matrix" values="0 0 0 0 0 0 0 0 0 0 0 0 0 0 0 0 0 0 0.25 0"/>
<feBlend mode="normal" in2="BackgroundImageFix" result="effect1_dropShadow_1_6"/>
<feBlend mode="normal" in="SourceGraphic" in2="effect1_dropShadow_1_6" result="shape"/>
</filter>
<clipPath id="clip0_1_6">
<rect width="83" height="111" fill="white"/>
</clipPath>
</defs>
</svg>
